<?xml version="1.0" standalone="no"?>
<!DOCTYPE svg PUBLIC "-//W3C//DTD SVG 20010904//EN"
 "http://www.w3.org/TR/2001/REC-SVG-20010904/DTD/svg10.dtd">
<svg version="1.0" xmlns="http://www.w3.org/2000/svg"
 width="987.000000pt" height="987.000000pt" viewBox="0 0 987.000000 987.000000"
 preserveAspectRatio="xMidYMid meet">
<metadata>
Created by potrace 1.11, written by Peter Selinger 2001-2013
</metadata>
<g transform="translate(0.000000,987.000000) scale(0.100000,-0.100000)"
fill="#000000" stroke="none">
<path d="M4810 9484 c-14 -2 -65 -9 -115 -15 -233 -28 -471 -99 -724 -216
-193 -90 -467 -299 -616 -469 -359 -412 -563 -911 -650 -1589 -19 -146 -42
-219 -108 -349 -92 -177 -208 -261 -295 -213 l-22 13 21 23 c39 41 97 166 114
246 25 113 15 215 -37 347 -13 34 -28 27 -28 -11 0 -34 -50 -159 -82 -204 -38
-55 -109 -125 -162 -162 -191 -130 -480 -122 -661 19 -62 48 -123 114 -141
152 -28 59 -37 41 -31 -58 7 -116 34 -197 100 -295 111 -167 309 -263 513
-250 73 5 192 37 220 58 6 5 37 -19 80 -62 91 -92 182 -167 272 -222 l73 -45
-48 -29 c-121 -74 -258 -222 -312 -336 -51 -108 -147 -491 -206 -827 -63 -363
-90 -676 -82 -955 14 -434 95 -678 285 -856 184 -172 460 -306 757 -368 109
-23 273 -41 366 -41 56 0 59 -1 64 -27 28 -137 70 -230 133 -296 84 -88 296
-216 435 -261 86 -28 217 -46 342 -46 l122 0 18 -47 c68 -185 192 -449 259
-553 l35 -55 -23 -14 c-40 -24 -56 -63 -56 -138 0 -120 52 -315 90 -338 5 -3
10 -36 10 -73 0 -83 28 -148 105 -241 100 -123 257 -251 378 -310 212 -103
433 -75 527 67 55 83 51 141 -18 248 -46 70 -194 217 -310 308 -45 36 -78 67
-73 70 17 11 49 92 64 164 15 74 10 87 -22 58 -29 -26 -175 -93 -229 -106 -74
-17 -151 -9 -192 20 -31 22 -80 107 -80 140 0 12 13 14 70 12 130 -6 270 59
335 157 99 150 243 511 306 771 13 52 24 96 25 97 3 9 204 21 229 15 25 -7 34
-19 62 -91 36 -88 138 -434 149 -500 5 -34 3 -42 -12 -47 -11 -4 -36 -25 -56
-46 -37 -39 -38 -41 -38 -116 0 -80 29 -221 55 -273 9 -16 31 -37 49 -46 33
-15 34 -17 38 -92 3 -42 12 -90 21 -107 56 -107 315 -286 477 -329 83 -22 198
-19 266 6 107 40 177 142 160 233 -13 70 -160 200 -339 301 l-86 48 24 32 c24
31 67 182 57 199 -2 4 -7 4 -11 -1 -12 -19 -122 -74 -192 -98 -124 -43 -203
-28 -252 47 -15 23 -25 43 -24 45 2 1 21 -2 43 -8 85 -24 194 8 277 81 36 32
51 56 79 132 43 111 102 320 159 556 l41 174 27 -6 c98 -21 182 -28 300 -24
122 3 141 6 181 28 51 29 68 58 77 131 5 44 4 51 -9 47 -8 -4 -84 -9 -169 -13
-115 -5 -191 -3 -299 9 -267 30 -424 79 -614 194 -54 32 -61 41 -97 119 -21
47 -39 90 -39 97 0 6 21 18 48 25 26 7 54 15 63 18 13 4 21 -8 34 -49 27 -83
55 -113 127 -137 135 -45 428 -81 652 -81 157 0 216 11 216 39 0 28 -56 212
-106 347 -24 67 -44 126 -44 133 0 7 -19 57 -41 112 l-42 99 26 58 c49 109
114 398 103 455 -3 17 -18 45 -32 64 -14 18 -22 38 -19 43 16 25 46 218 51
330 14 267 -54 538 -195 776 l-59 99 31 35 c35 41 410 450 411 450 1 0 19 -9
41 -20 68 -35 214 -20 237 24 6 11 11 52 11 91 0 97 -35 166 -133 266 -59 59
-95 85 -169 122 -110 56 -155 61 -192 21 -18 -20 -24 -36 -23 -69 0 -25 6 -51
13 -59 10 -11 -2 -21 -66 -56 -43 -23 -81 -45 -86 -49 -4 -4 3 -34 15 -68 22
-59 22 -61 5 -114 -32 -98 -137 -233 -229 -293 -22 -14 -26 -24 -26 -62 0 -46
-18 -83 -56 -117 -27 -24 -119 -66 -164 -75 -31 -7 -35 -11 -39 -45 -5 -52 -9
-60 -93 -195 l-75 -121 -84 -1 c-47 0 -114 7 -150 16 -71 18 -231 89 -282 125
l-31 21 -51 -25 c-144 -72 -283 -54 -399 51 -33 30 -42 33 -61 24 -55 -26 -56
-26 -158 74 -54 54 -96 102 -92 107 3 6 1 7 -6 3 -7 -5 -23 3 -39 19 -72 73
-294 230 -409 290 l-52 27 3 56 c3 51 21 121 46 177 5 11 14 37 20 58 6 20 13
37 16 37 2 0 47 -18 99 -40 227 -97 437 -92 647 16 49 26 96 54 105 62 8 8 47
21 86 28 71 12 72 12 97 -13 14 -14 41 -37 60 -52 19 -14 37 -28 40 -31 3 -4
29 -16 59 -29 76 -32 161 -27 222 14 24 16 48 28 52 27 5 -1 6 2 2 8 -3 5 6
25 20 44 14 19 39 65 55 103 27 66 30 69 91 99 59 29 72 31 173 32 289 3 516
148 660 422 45 86 102 238 92 247 -3 3 -10 -6 -16 -21 -15 -40 -67 -114 -114
-165 -149 -157 -427 -276 -676 -288 -100 -5 -106 -7 -137 -36 -26 -24 -43 -31
-87 -35 -57 -5 -107 14 -245 92 -42 24 -46 25 -64 9 -10 -10 -28 -39 -39 -65
-38 -89 -138 -154 -282 -184 -60 -13 -77 -22 -130 -69 -112 -100 -205 -135
-359 -135 -100 0 -185 19 -297 67 -84 36 -211 111 -224 132 -4 6 -5 19 -2 29
6 16 19 18 160 14 118 -3 173 0 237 13 104 20 200 65 242 112 96 106 157 161
207 185 106 52 238 59 389 22 l63 -16 42 40 c104 100 216 152 341 159 70 4 92
1 173 -26 104 -35 164 -39 256 -15 76 19 196 73 196 88 0 14 -36 77 -130 231
-40 66 -132 235 -203 375 l-130 254 34 26 c66 49 151 141 145 156 -3 8 -2 13
3 10 15 -10 52 74 58 132 l5 57 -28 -34 c-112 -137 -236 -208 -416 -239 -206
-35 -498 26 -803 168 -132 62 -225 120 -225 141 0 47 74 148 149 203 42 31 56
35 131 41 97 8 247 -7 365 -36 172 -43 448 -161 523 -224 17 -14 33 -21 36
-16 19 30 32 229 20 302 -6 34 -10 37 -63 52 -309 88 -552 122 -871 122 -229
-1 -341 -11 -510 -46 -345 -71 -695 -233 -882 -407 -36 -34 -69 -58 -73 -54
-5 4 -5 1 -1 -6 4 -7 -10 -30 -37 -60 -173 -183 -341 -509 -416 -809 -57 -228
-66 -312 -66 -613 1 -167 5 -292 12 -318 9 -36 9 -41 -3 -31 -25 20 -74 102
-67 112 3 6 1 7 -4 4 -14 -9 -68 117 -59 138 3 9 2 14 -3 10 -33 -20 -52 307
-27 467 28 179 117 475 139 461 6 -3 7 -1 3 6 -10 16 33 123 47 114 6 -4 7 -1
2 6 -9 16 25 92 38 84 6 -3 7 -1 4 4 -10 16 42 125 55 117 7 -4 8 -2 4 4 -10
16 32 94 46 86 7 -4 8 -3 4 4 -4 6 0 25 9 42 16 31 32 42 21 14 -3 -9 -2 -12
5 -9 5 4 7 16 3 27 -4 13 -2 18 4 14 5 -3 9 2 8 12 0 9 5 16 12 14 8 -1 11 2
7 8 -9 14 14 52 27 44 6 -4 8 -3 5 3 -4 6 1 19 9 29 9 10 12 13 8 5 -5 -9 -3
-12 5 -7 6 4 9 11 7 14 -2 4 8 21 22 38 15 16 23 23 17 14 -9 -13 -8 -13 7 -1
10 7 15 17 12 22 -2 5 29 43 71 86 42 43 74 73 71 66 -4 -6 -2 -14 3 -18 6 -3
8 3 6 14 -3 14 15 38 62 81 138 130 372 298 395 284 7 -4 10 -4 6 1 -10 10 6
21 103 73 307 165 693 255 1021 238 134 -6 272 -28 293 -46 26 -21 10 19 -33
84 -53 81 -172 193 -260 246 -149 88 -336 131 -562 129 -74 -1 -146 -3 -160
-5z m1360 -2010 c26 -7 83 -45 135 -89 l30 -26 -30 11 c-145 54 -283 16 -339
-92 l-17 -33 6 39 c10 64 50 141 86 169 49 36 67 39 129 21z m-2255 -61 c-2
-8 0 -11 5 -8 12 7 67 -77 119 -183 67 -134 115 -306 128 -459 6 -69 5 -73
-13 -67 -119 40 -258 152 -285 229 -19 53 -19 395 0 478 12 57 13 58 32 41 11
-10 17 -24 14 -31z m1168 -103 c24 -11 67 -45 97 -75 l53 -54 -61 25 c-131 53
-256 23 -320 -76 -18 -26 -22 -29 -17 -11 15 51 55 126 86 159 54 56 93 64
162 32z m-38 -2197 c102 -40 160 -85 189 -145 45 -94 59 -170 58 -323 -1 -77
-5 -162 -9 -189 -9 -57 -9 -56 -128 -58 -61 -1 -91 3 -125 19 -61 28 -75 46
-106 137 -14 43 -39 108 -56 145 -21 46 -35 104 -48 193 -11 70 -24 145 -31
167 -10 32 -9 44 1 56 33 40 153 39 255 -2z m1439 -585 c28 -277 -2 -744 -51
-793 -17 -18 -146 -59 -262 -84 -47 -11 -87 -18 -88 -18 -1 1 11 52 27 112 48
185 63 348 58 601 l-5 221 86 -4 c47 -2 113 0 146 5 33 5 65 10 72 11 7 1 14
-20 17 -51z m-2839 -1163 c-80 -239 -66 -414 43 -523 73 -73 320 -169 554
-216 551 -111 1008 3 1346 336 41 40 78 81 83 91 12 22 26 22 34 -1 9 -31 45
-40 121 -32 38 4 70 7 71 6 2 -2 -360 -244 -427 -285 -428 -264 -592 -341
-835 -392 -141 -29 -408 -32 -521 -6 -302 70 -537 260 -685 552 -50 100 -50
100 -36 141 44 122 114 238 216 356 36 42 67 75 67 75 1 -1 -13 -47 -31 -102z"/>
<path d="M3909 8375 c-1 -3 -2 -8 -3 -12 -1 -5 -5 -15 -10 -23 -7 -12 -6 -13
4 -3 13 12 23 43 14 43 -2 0 -5 -2 -5 -5z"/>
<path d="M8219 7006 c-99 -40 -206 -115 -315 -218 l-61 -59 -6 29 c-14 68 -93
121 -162 108 -47 -9 -112 -83 -165 -189 -44 -86 -45 -88 -25 -102 44 -32 152
-132 188 -175 86 -102 98 -118 129 -180 25 -49 33 -76 32 -117 0 -29 2 -53 5
-53 4 0 51 11 107 24 330 80 542 233 605 437 35 112 22 265 -33 372 -24 48
-84 114 -119 133 -41 21 -116 17 -180 -10z"/>
</g>
</svg>
